<?xml version="1.0" encoding="UTF-8"?>
<svg version="1.1" viewBox="0 0 2000 2000" width="1280" height="1280" xmlns="http://www.w3.org/2000/svg">
<path transform="translate(0)" d="m0 0h2e3v2e3h-2e3z" fill="#FEFEFE"/>
<path transform="translate(888,447)" d="m0 0h4l1 24 7-2 2-1h7l19-6h7l2 6 1 27h41l9 2 1 2-8 14-6 11-3 7 1 7 6 10 2 8v25l5 18 1 2 2 27v29l-1 7-1 4-4 20-2 6-1 8 20 3 4 2h15l20 2 5 2-1-10-3-7-7-34-2-25-1-4v-8l2-21 4-14 6-10 4-10-1-4v-23l1-8 3-3 2-7 7-12 5-5 3-6 7-7 6-4 4-4 17-11 13-6 13-3 32-3 12 1 4 2v2l6-1h8l16 3 16 7 15 8 8 4 9 6 11 16 8 15 4 8 3 9 3 8 3 13 1 14v20l-3 24v7l5 2 6 7 4 12v9l-4 8-8 7-7 3h-13l-4 2-5 12 1 4 6 4 12 3 1-4 10-3 1 1 2-4 23-12 16-10 11-9 8-6 14-15 1-2-1-10-2-6-1-9v-12l4-1 8 7 7 14h2l6-9 8-6 13-5 1 1v8l-4 9v4l5 3v36l-1 2-13 3-4 4-13 19-13 16-9 11-36 36-4-1 1 5h-2l-2 4-41 41-10 8-1 2v20l8 16 5 14 4 17 84 1 2 1 2 10 4 44 10 114 5 54 4 44 9 105 2 19v14l-14 8-36 17-24 11-3 1h-130l2 24v15l-3 2h-346l-12-5-16-8-22-10-16-8-6-4-2-2-108-1-16-8-20-9-24-12-2-2v-15l6-69 5-53 3-34 4-48 5-53 5-56 2-8 1-1 70-1 5-19 4-9 6-11 12-13 10-8 17-9v-25l4-17-3-1-1-18 1-10-2-5-27-18-16-10-11-7 4-17 6-28 4-20 1-1h6l3 2h13l10-11 9-4 10-1-5-17-3-2h-15l-7-3-6-5-5-8-1-8 3-14 4-6 4-3 7-2-1-9-1-5v-8l1-1 2-29 3-14 5-14 6-9 3-6 4-1v-2h3v-2l4-3 1-3 5-5 3-4 7-3 3-1v-2l15-10 11-7h2v-2l5-2v-2l13-7 7-5 16-8 5-3h3l2-4 7-2z" fill="#080609"/>
<path transform="translate(888,447)" d="m0 0h4l1 24 7-2 2-1h7l19-6h7l2 6 1 27h41l9 2 1 2-8 14-6 11-3 7 1 7 6 10 2 8v25l5 18 1 2 2 27v29l-1 7-1 4-4 20-2 6-1 8 20 3 4 2h15l20 2 5 2-1-10-3-7-7-34-2-25-1-4v-8l2-21 4-14 6-10 4-10-1-4v-23l1-8 3-3 2-7 7-12 5-5 3-6 7-7 6-4 4-4 17-11 13-6 13-3 32-3 12 1 4 2v2l6-1h8l16 3 16 7 15 8 8 4 9 6 11 16 8 15 4 8 3 9 3 8 3 13 1 14v20l-3 24v7l5 2 6 7 4 12v9l-4 8-8 7-7 3h-13l-4 2-5 12 1 4 6 4 12 3 1-4 10-3 1 1 2-4 23-12 16-10 11-9 8-6 14-15 1-2-1-10-2-6-1-9v-12l4-1 8 7 7 14h2l6-9 8-6 13-5 1 1v8l-4 9v4l5 3v36l-1 2-13 3-4 4-13 19-13 16-9 11-36 36-4-1 1 5h-2l-2 4-41 41-10 8-1 2-1 18-4-3v-2h-2l-6-7-12-9-12-7-13-5-12-3-1-3-2 2-15-1-5 1-15 1-9 4-13 5-14 9-10 9-8 9-9 15-7 20-2 13-2 2-71 1-2 5-2 19-6 70-6 74-3 30-1 18-2 1h-56l-2-1-2-17-8-98-2-21v-4h-58l-3-1-2-5-3-12-4-9-6-12-9-12-6-4v-2l-20-10-12-4-5-1h-25l-11 2h-3v-25l4-17-3-1-1-18 1-10-2-5-27-18-16-10-11-7 4-17 6-28 4-20 1-1h6l3 2h13l10-11 9-4 10-1-5-17-3-2h-15l-7-3-6-5-5-8-1-8 3-14 4-6 4-3 7-2-1-9-1-5v-8l1-1 2-29 3-14 5-14 6-9 3-6 4-1v-2h3v-2l4-3 1-3 5-5 3-4 7-3 3-1v-2l15-10 11-7h2v-2l5-2v-2l13-7 7-5 16-8 5-3h3l2-4 7-2z" fill="#F9C8A1"/>
<path transform="translate(1077,891)" d="m0 0h156l83 1v414l-27 1h-99l-4-38-3-37-8-92-4-42-19-1-144-1v-10l3-32 5-63 4-45 4-48 1-6z" fill="#5A903A"/>
<path transform="translate(888,447)" d="m0 0h4l1 24 7-2 2-1h7l19-6h7l2 6 1 27h41l9 2 1 2-8 14-6 11-3 7 1 7 6 10 2 8v25l5 18 1 2 2 27v29l-1 7-1 4-4 20-2 6-1 8 20 3 3 1 1 4-8 24-8 20-2 12-2 2-3-1v-2l-16-8-2-3-7-3v-2l-9-3-2 4-4 1v2l-5 1-1 3h-3l-1 2-8 4-12 4-4 16-4 6-8 5-6 2h-25l-9-6-6-7-7-15-5-2-9-2-4-2v-2l-6-2-10-6v-2l-5-2-9-7-2-5h-5l-3 4h-7l-4-6-5 1-2 4-4 1h-5l-1-4 1-3-2-1-14 2 1-7h-7l-2-5 3-9h-8v-1l10-1 10-11 9-4 10-1-5-17-3-2h-15l-7-3-6-5-5-8-1-8 3-14 4-6 4-3 7-2-1-9-1-5v-8l1-1 2-29 3-14 5-14 6-9 3-6 4-1v-2h3v-2l4-3 1-3 5-5 3-4 7-3 3-1v-2l15-10 11-7h2v-2l5-2v-2l13-7 7-5 16-8 5-3h3l2-4 7-2z" fill="#F9C8A1"/>
<path transform="translate(867,1110)" d="m0 0 46 1 5 25 6 16 9 14 9 10 7 7 12 8 18 8 12 3 7 1h21l17-4 12-5 14-8 10-8 11-12 9-14 6-15 3-12 2-14 8-1h47l2 7 4 42 11 128 4 44 1 8v10l-11 1h-313l-1-5 1-124 2-103 1-7z" fill="#E25049"/>
<path transform="translate(673,969)" d="m0 0h238l4 44 7 83-1 1-109 1-4 16-23 132-10 58-2 7h-101v-341z" fill="#ECB3EA"/>
<path transform="translate(716,709)" d="m0 0h6l6 3 8 1-1 6-1 5 1 2 7 1-1 7 15-3 2 4-1 4h7l2-1 3-5 5 1 3 5h7l3-4h5l4 7 12 8v2l5 2 9 5 2 1v2l16 4 4 3 7 16 9 8 4 2h25l9-4 6-4 4-10 2-10 7-3 10-4 8-4 1-2 5-1v-2l5-3 1-2 5 1 4 2v2l4 1 5 3v2l5 1 8 5 3 2v2l5-1 2 5 12 5 1 3-3 6-5 5-3 5v40l1 1-1 29-2 121-1 13h-30l-28-1-2-1-2-16-2-21v-4h-58l-3-1-2-5-3-12-4-9-6-12-9-12-6-4v-2l-20-10-12-4-5-1h-25l-11 2h-3v-25l4-17-3-1-1-18 1-10-2-5-27-18-16-10-11-7 4-17 6-28 4-20z" fill="#92BC66"/>
<path transform="translate(1016,254)" d="m0 0h12l4 1-2 27-2 22-1 3 5-5 9-14 11-13 8-8 11-7 4-1h11l5 3 4 9-1 9-4 11-11 20-11 16-6 8 11-2h7l9 3 8 7 4 7 4-1 10-4 8-2 3-34 2-6 8-1h11v16l-2 31v20l2 16 2 4 4-2 12-23 12-29 9-22 5-3h12l1 1v30l-3 51v27h2l12-36 5-21 4-16 7-13 7-8 10-6 8-3 14-2 2-8 6-32 4-14 4-3h14l3 3-1 31-2 38v88l1 10h2l3-9 11-39 8-30 8-16 8-9 14-7 15-3h3l5-30 6-25 3-2h17v31l-3 64v35l1 31 1 8h3l3-11 10-36 6-20 2-1 1-28 2-21 3-18 2-4 10-2h8l1 1-1 14-2 21v37l2 9 3 1 2-5 7-12 7-16 14-37 4-5 2-1h14l1 1 1 16v34l-1 20 5-3 12-11 5-5 5 1 1 5-8 10-11 11-8 6-3 7-3 16-8 24-6 11-7 9-9 8-6 3-5 1h-12l-10-5-5-6-2-6v-10l5-13 11-12 8-7 15-10 7-4 2-10 3-28h-2l-3 9-10 18-7 7-7 3h-9l-7-3-5-6-2-1-4 17-6 24-5 15-4 6-4 3-6 2-6-1-6-4-5-8-5-13-4-17-3-21-1-13h-2l-3 10-8 16-5 5-4 2h-10l-10-5-3-3v-2h-2l-1 9-8 30-5 9-6 5-9 1-7-4-4-5-5-11-5-18-3-19-2-20-7 15-6 12-5 4-4 2h-10l-12-6-11 33-5 8-6 3h-8l-6-3-4-5-4-14-1-6v-47l-10 22-7 12-7 6-7 2h-9l-9-4-5-9-3-13v-23l-7 3-16 7-10 18-11 12-7 7-10 7-16 9-13 5-9 3-4 6-1 1h-13l-6-5-14-5-4-5 1-8 9-10 7-5 1-3v-31l1-27 4-38 5-26 4-11z" fill="#124D5E"/>
<path transform="translate(651,247)" d="m0 0h13v28l-4 64v5l9-15 9-11 7-5 3-1h9l5 3 5 10 1 5 1 49 2 24 2 8 3-1 8-15 7-17 6-25 5-13 8-12 6-5 4-2h7l8 6 7 7 8 6 10 5h18l4-31 2-12 4-4 6-1h9l1 1 1 29 8-11 7-5 8-3h10l8 5 4 5 4 8 2 7v8l15-2h9v4l-7 3-12 3-6 4-7 17-8 11-5 6-11 7-13 3-9 1v37l1 20-2 3-5 1h-11l-3-4-3-21-2-22v-59l-8 1h-13l-9-2 1 7v17l-3 13-6 11-7 6-5 2h-15l-9-5-5-7-2-1-2 6-6 10-5 6-5 3-10 1-6-3-4-5-4-14-1-10-2-66-5 2-7 11-10 19-8 21-6 27-3 5h-9l-4-2-2-4-3-15-2-30v-5l-26 3h-3l4 17 1 7v14l-4 10-4 5-10 7-11 4-5 1h-21l-10-4-9-9-4-8-2-7v-9l3-10 4-6 5-5 8-5 10-4 14-3-5-16-6-22-2-11v-18l2-8 5-11h2l2-4 9-6 8-2h9l11 4 5 4 6 9 4 11 1 6v9l-6 3h-10l-3-4-4-16-4-9-2-4h-7l-3 6-2 9v10l3 14 4 14 5 12 6 16 2 1 30-3 2-29 4-32 6-31 2-4z" fill="#114C5E"/>
<path transform="translate(1e3 707)" d="m0 0h15l20 2 7 3 2 9 7 9 9 10 11 7 2 4 1 13 4 13 4 14 4 4 17-1 21-6 6-4h2l2-4 5 1 16 9v4l-7 2-11 5-10 5-12 9-10 10-10 15-6 15-3 9-2 13-2 2-71 1-2 5-2 19-6 70-6 74-3 30-1 18-2 1h-56l-2-1-2-17-6-75v-7l60 2 1-82 1-52 1-29-1-1v-40l7-10 2-1 2-7-13-6-1-1v-12l4-12 6-14z" fill="#37A7D6"/>
<path transform="translate(716,709)" d="m0 0h6l6 3 8 1-1 6-1 5 1 2 7 1-1 7 15-3 2 4-1 4h7l2-1 3-5 5 1 3 5h7l3-4h5l4 7 12 8v2l5 2 9 5 2 1v2l16 4 4 3 7 16 9 8 4 2h25l9-4 6-4 4-10 2-10 7-3 10-4 8-4 1-2 5-1v-2l5-3 1-2 5 1 4 2v2l4 1 5 3v2l5 1 8 5 3 2v2l5-1 2 5 12 5 1 3-3 6-5 5-3 5v40l1 1v6l-6 2-8 4-7 1-12-5-19-10-6-2h-7l-13 7-13 9-9-1-11-4-10-6-7-4-10-3-5 1-23 11-9 3h-6l-11-7-8-4-4-1h-9l-10 4-6 5h-2v2l-3-1-1-18 1-10-2-5-27-18-16-10-11-7 4-17 6-28 4-20z" fill="#639C3E"/>
<path transform="translate(1158,462)" d="m0 0 12 1 4 2v2l6-1h8l16 3 16 7 15 8 8 4 9 6 11 16 8 15 4 8 3 9 3 8 3 13 1 14v20l-3 24-3 13-6 7h-6l-5-6-4-10-3-7-4-10-4-11-12-26-6-12-5-8-6-15-4-4-3 12-3 7-5 3-4-1-5-5-6-8-5-9-4-5v-2l-2 1-4 10-7 8-7 4h-6l-5-3-6-5-6-8-2-7v-3h-2l-5 10-10 16-2 2-11 1-5-3-3-5-1-7h-2l1-7-4 2-9 8-5 5-16 15-5 4-7 4-3-2v-23l1-8 3-3 2-7 7-12 5-5 3-6 7-7 6-4 4-4 17-11 13-6 13-3z" fill="#2D1B23"/>
<path transform="translate(888,447)" d="m0 0h4l1 24 7-2 2-1h7l19-6h7l2 6 1 27h41l9 2 1 2-8 14-6 11-3 7 1 7 6 10 2 8v15h-4l-2-4-4-2-4-4v-2l-4-2-8-8-16-14-11-6-3-4-1 21-4-1-8-6-12-5-3-2-10-3-7-4 2 15-1 6h-5l-2-4-9-3-16-6-6-2h-5l2 9 1 3v8l-9-1-8-2-3-3-9-3-7-3-2 6-10 19-6 9-7 12-5 13-7 14-3 12-2 12-2 10-5-3v-2l-4-2-7-7-1-2-2-12-1-5v-8l1-1 2-29 3-14 5-14 6-9 3-6 4-1v-2h3v-2l4-3 1-3 5-5 3-4 7-3 3-1v-2l15-10 11-7h2v-2l5-2v-2l13-7 7-5 16-8 5-3h3l2-4 7-2z" fill="#4C3231"/>
<path transform="translate(1329,892)" d="m0 0h23l5 64 6 66 7 76 6 69 8 89 1 20-10 6-10 4-15 8-19 9h-2z" fill="#5B903A"/>
<path transform="translate(1e3 780)" d="m0 0 7 1 9 6 4 4 2 7v36l-1 21 1 7v17l-12 1-2 5-2 19-6 70-6 74-3 30-1 18-2 1h-56l-2-1-2-17-6-75v-7l60 2 1-82 1-52 1-29-1-1v-40l7-10z" fill="#FEFEFD"/>
<path transform="translate(830,588)" d="m0 0h5l3 3 5 2 7 13 1 13-11 2-2-2v-10l-5-8-7 1-2 7-2 14-2 6h-5v2l6 1 4 4 6 11v7l3 9v4h2l1 5-1 3v13l6 17 1 7-2 3h-2l-3 13-5 7-3 2h-4v2h-2v2h-2l-1 4-8 2v2l-5 1-12-9-2-5h-5l-3 4h-7l-4-6-5 1-2 4-4 1h-5l-1-4 1-3-2-1-14 2 1-7h-7l-2-5 3-9h-8v-1l10-1 10-11 9-4 10-1-5-17-3-2h-15l-7-3-6-5-5-8-1-8 3-14 4-6 4-3 8-2 3 6 7 7 6 5 3-12 2-14 4-12 5-9 4 4h9l11-2 5-1 3 3 3 9 1 6 2-11 5-13 9-4z" fill="#F0AF90"/>
<path transform="translate(844,886)" d="m0 0h6l11 8 10 8 13 6h8l8-3 10-8 2-1h17l10 3 18 7h7l20-5h4v85l-1 13h-30l-28-1-2-1-2-16-2-21v-4h-58l-3-1-2-5-3-12-4-9-6-12-9-12-6-4v-2l-4-2v-3l8-5z" fill="#629B3E"/>
<path transform="translate(643,969)" d="m0 0h16v337l-6-2-38-18v-14l16-179 11-122z" fill="#ECB3E8"/>
<path transform="translate(936,1110)" d="m0 0h84l69 1-1 12-4 15-8 16-11 13-10 9-16 8-12 4-12 2h-13l-17-3-13-5-9-5-11-9v-2h-2v-2h-2l-9-12-7-15-4-16-1-10z" fill="#E25049"/>
<path transform="translate(1177,804)" d="m0 0 16 1 17 4 16 8 13 10v2h2l9 12 8 16 5 15 1 6-3 1h-160l-1-2 4-17 6-14 7-10 9-11 6-4 5-4 16-8 14-4z" fill="#36A6D6"/>
<path transform="translate(822,1111)" d="m0 0h22v65l-1 76-1 27v66l-9-3-45-22-2-2 1-8 11-66 8-45 8-47 7-40z" fill="#E25049"/>
<path transform="translate(1238,612)" d="m0 0h8l1 3 4 2v2l3 1 1 3 2-1 5 10 3 5 2 3h6l6-8 1-8 3 4 5 3 5 6 4 12v9l-4 8-8 7-7 3h-13l-4 2-5 12 1 4 6 4 15 4 7 10 6 11v3l-2 1h-8l1 5 1 3-1 1h-5l-3-2h-8l4 4v2l-3 2-7-1-8-6-4-1 1 7-3 3-4-2v-2h-5l-4-5h-3v-2l-5 4-10 5-7-3-3-2-5-25-3-6 1-16v-7l5-13 6-9-1-12 2-9 2-4h2l1-3h2l2-4 5-5 4-8 5-3z" fill="#F0AF90"/>
<path transform="translate(1359,599)" d="m0 0 5 1 8 9 5 11h2l6-9 8-6 13-5 1 1v8l-4 9v4l5 3v36l-1 2-13 3-4 4-13 19-13 16-9 11-36 36-4-1v-2h-2l-5-10-4-9-9-19-7-11-1-7 8-5 24-13 10-7 10-8 8-6 14-15 1-2-1-10-2-6-1-9v-12z" fill="#F9C9A2"/>
<path transform="translate(621,634)" d="m0 0h2l2 4 3 21 1 12 12 9 16 8 17 7 27 9 14 4 1 2-9 44-5 19-7-2-34-20-18-13-16-13-10-8-8-8-2-1-15-1-1-20v-37l3-1 16 9h2l3-17z" fill="#F9C8A1"/>
<path transform="translate(1284,694)" d="m0 0h2l9 16 8 16 5 12 4 7 4 9v2h-2l-2 4-41 41-10 8-1 2-1 18-4-3v-2h-2l-6-7-12-9-12-7-13-5-12-3-1-3 1-8 5-18 2-7 10-8 8-7h2v-2l5-4h2l1-2 4 5 5 1 1 2 4 1 1-5v-4l6 1 8 6h5l3-1-5-6 1-1h8l3 2h5l-2-6 1-2 10-1-7-14-6-9-3-2 1-4z" fill="#37A7D6"/>
<path transform="translate(838,480)" d="m0 0 3 1v28l-1 15-2 5-1 1v17l4 2v2l-9-1-8-2-3-3-9-3-7-3-2 6-10 19-6 9-7 12-5 13-7 14-3 12-2 12-2 10-5-3v-2l-4-2-7-7-1-2-2-12-1-5v-8l1-1 2-29 3-14 5-14 6-9 3-6 4-1v-2h3v-2l4-3 1-3 5-5 3-4 7-3 3-1v-2l15-10 11-7h2v-2l5-3h6l4-1v-2z" fill="#411C1D"/>
<path transform="translate(777,896)" d="m0 0h12l13 2 15 7 11 8 6 7 7 11 6 14 1 10-66 1h-65l-1-4 5-16 8-14 5-6 8-7 9-6h3v-2l16-4z" fill="#639B3F"/>
<path transform="translate(1041,609)" d="m0 0 4 2v5l6-2 6-4h10l5-1 4 1 2 4 1 5 1 3 3 1v3h2l1 5h2l4 9v22l-1 5v9l-4 10 2 9v13l-2 3-3 9-9 4h-10l-8-5-2-8 7-1v-3h-5-3l-3-7-2-4h-7l-2-2-7-34-1-28 1-8h2v-3h2v-11z" fill="#F1B091"/>
<path transform="translate(970,604)" d="m0 0h3l3 6 4 3 1 5h2l2 9 2 10 2 6v14l-1 7-1 4-4 20-3 11-2 2-2 13-6 12-7 6-5-2h-4v-2l-6-2-6-9-3-7-2-30-1-11-1-1-1-16 2-14v-7h3v-3h2l1-4 4-3h2l2-7 4-3 11-4z" fill="#F0AF90"/>
<path transform="translate(1277,638)" d="m0 0h5l4 2 3 3 2 5 3 3 2 4v6l-4 6-7 6-7 3h-13l-4 2-5 12-3 10-3 9-4 7-3 3h-4v-2l-11-1-4-2-6-1-5-4-5-12v-6l-2-7 3-7 2-6 6-8 2-5 1-1h10l9-3 8-2 6 1 5 3 9 2 6 7 1 5 8-5v-19l-5-2-2-4z" fill="#EDA285"/>
<path transform="translate(1077,749)" d="m0 0 8 6 15 7 27 8 7 1h22l14-2 17-4 9-4 4-2h3l2-4 4-3 2 1-4 4h-2l-3 14-5 18-2 3-15-1-5 1h-15l-15-9-4-2-4 1-4 4-8 4-18 5-17 1-5-5-5-16-3-11-1-13z" fill="#FEFEFE"/>
<path transform="translate(1181,589)" d="m0 0h14l8 4 4 5 4 12 1 13h2l2-1 4-10h2l2-4 7-8 5 1 8 3 3-1 2-2 6 13 1 10-2-1-1-3-6-5-1-2h-8l-7 2-3 1-2 6-4 6-7 6-1 2h-2l-1 4-2 9 1 12-6 9-5 13v11l-1 12 3 6 3 16 1 9 4 2 7 2 9-5h2l1-3 4 1v2l-5 4h-2l-1 2-5 1-5 5-5 1-8-3-2-1-1-3-5-2-2-15-2-4-1-11 1-9 1-3-1-10 1-1v-9l2-11 3-8-2-20 4-5 8-2v-4l-5-3-1-3-2-16-2-4-5-1-4 2-1 5v11l-1 2-12-1v-14l8-16z" fill="#F4BC98"/>
<path transform="translate(830,588)" d="m0 0h5l3 3 5 2 7 13 1 13-11 2-2-2v-10l-5-8-7 1-2 7-2 14-2 6h-5v2l6 1 4 4 6 11v7l3 9v4h2l1 5-1 3v13l6 17 1 7-2 3h-2l-3 13-5 7-3 2h-4v2h-2v2h-2l-1 4-8 2v2l-5 1-3-9 4-1 4 1 4-4 2-3h2l1-4 3-6 3-2 2-9v-23l-3-8-2-8-5-15-2-16-6-12 1-2h-5l-5-4-1-4-4-1-7-6-10-2-8-4-1 3h-2l2-6 4-7 4 4h9l11-2 5-1 3 3 3 9 1 6 2-11 5-13 9-4z" fill="#F4BC98"/>
<path transform="translate(781,656)" d="m0 0 9 1 5 2 2 2h7l7 3 2 5 2 2 2 4 2 8-1 15-5 5-4 5-5 3-3 1v2h-2v3l-4 2-4-1v-2h-5-3l-5-1-3-4-2-10-5-5-6-18-5-4 1-9 5-5 5-2 12-1z" fill="#EDA285"/>
<path transform="translate(1051,595)" d="m0 0h11l4 2 8 1 7 3 2 5 1 9h2l4 12 5 2v2l5 2 2 1 1 3v8l-2 12-1 27 1 10 1 5h-2l-2 9-3 9-4 7-8 8h-2v2h-10l-8-3-3 1 5 8-4-2-10-11-4-6-5-25 7-1 2 1 3 10h3 5l1 4-2 1h-6l4 9 7 3h9l9-4 3-9 1-2v-15l-2-7 4-10v-10l1-5v-21l-3-9h-2l-1-5h-2l-1-3-4-4-2-9h-8l-4 1h-7l-6 4-1 1h-5v-5l-8-1v11h-2v3h-2l1 4-1 5v19h-1l-1-17-1-4v-8l2-17 5-8 10-2z" fill="#F4BC99"/>
<path transform="translate(776,901)" d="m0 0h10l12 4 4 1 8 4v2l4 2 4 4v2l4 2 7 6v2l4 1v2h6l1 4 4 3 2 2 2 13h-19l-13-1 4-1-2-4-4-1-1 3-2-1v-1l-14-3h-7l1-4h2l1-4h-2l-3-3v4l-9-2v2l-2-1 3-4-1-5-4-1v-8l-9-3-10-3-2-4 1-5h6l3 1v-2l9-2 2 1z" fill="#5B913B"/>
<path transform="translate(775,520)" d="m0 0 1 3-2 2v6l-2 4 2 1-3 6-1 16-1 5v24l1 10 1 8-4 10-2 9-2 12-2 10-5-3v-2l-4-2-7-7-1-2-2-12-1-5v-8l1-1 2-29 3-14 5-14 6-9 3-6 4-1v-2h3v-2l4-3 1-3z" fill="#4D3331"/>
<path transform="translate(877,454)" d="m0 0 2 3-1 1-7-1 1 25 1 26 1 18 1 6h-2l2 8-1 2-9-3-16-6-6-2h-5l2 9 1 9-5-1v-18l2-2 1-6 1-16v-25l-2-1-1 2-3-1v2l-6 2-4-2 13-7 7-5 16-8 5-3h3l2-4z" fill="#4C3331"/>
<path transform="translate(888,447)" d="m0 0h4l1 24 9-1 1 3 2 1v17l-2 17-7 22-4 1-12-6 2 15-1 6h-5l-2-2v-5l-1-3 1-7-1-9-2-36v-11l-1-14 1-2h7v-4z" fill="#411C1D"/>
<path transform="translate(958,597)" d="m0 0h14l14 3 1 1 2 27v15h-1l-2-6-2-10-1-2v-7h-2l-2-5-5-4-1-5-11 5-9 4-3 2-2 6-6 4-1 3h-2v3h-3l1 8-2 16v13l2 1 2 21 1 20 3 7 5 7v2l15 5 6-5 3-3-2 5-5 7-10 5-5-1-3-1v-2l-4-1-5-2-3-5-3-9-4-15v-13l-1-4 1-7-1-12-1-10-1-5v-10l-1-3 3-7 2-1 3-9 5-1 3-9 3-3 1-4 9-6z" fill="#F5BC99"/>
<path transform="translate(985,630)" d="m0 0h1l1 7 2 6v14l-1 7-1 4-4 20-3 11-3 2-1-10v-6l-5 3-1 2h-2v-2l-12 1-7-6-6-11-2-12v-11l2-2h8l10-4h4l1-5h5l7 3 4 7 4 2-1-4-1-15z" fill="#EDA285"/>
<path transform="translate(1314,892)" d="m0 0h1v382l-2-2-3-12-1-15v-39l1-39-1-5v-138-4-9l1-1-1-5 1-7v-47l-1-7v-16l2-16v-7h2l-1-3 1-3-3-4v-2z" fill="#639C3E"/>
<path transform="translate(1256,759)" d="m0 0h23l27 1 3 1-2 4-26 26-5 2h-34l-1-14v-19z" fill="#0686C3"/>
<path transform="translate(1239,533)" d="m0 0 5 1 7 5 4 2 8 18 1 7 1 15 1 9-2 3 1 13v5l1 2-2 10-1 3-5-1-3-7-4-10-4-11-4-9-3-9-5-12-1-2v-9l2-6-2-5 2-3 3-2-1-3z" fill="#060305"/>
<path transform="translate(567,358)" d="m0 0h8l4 11 3 14 1 11-2 9-5 6-6 3h-12l-7-4-7-10-2-7v-10l3-8 5-7 10-6z" fill="#FEFEFE"/>
<path transform="translate(1132,821)" d="m0 0 11 1 23 1v44h-37l-1-43z" fill="#0686C3"/>
<path transform="translate(987,754)" d="m0 0h2v2l54 1 1 1v20l-1 17-3 1h-12v2h-2l-3-8-6-5-8-4-6 1-4 1 1-6-13-6-1-1v-12z" fill="#0887C3"/>
<path transform="translate(1063,820)" d="m0 0h37l3 1 2 7-2 5-8 16-6 17h-24l-3-1v-22z" fill="#0686C3"/>
<path transform="translate(1255,693)" d="m0 0 8 5 15 4 7 10 6 11v3l-2 1h-8l1 5 1 3-1 1h-5l-3-2h-8l4 4v2l-3 2-7-1-8-6-4-1 1 7-3 3-4-2v-2l-5-2-2-5 1-5 6-8 2-4 3-3 4-11z" fill="#F8CAA6"/>
<path transform="translate(1192,821)" d="m0 0h13l16 2 4 2 2 43-1 1h-30l-3-1-1-33z" fill="#0686C3"/>
<path transform="translate(1035,643)" d="m0 0 1 3v4l7-3 5-1h21l6 4 5 4 3 7 1 10-1 2h-2v6l-6 6-12 1-8-2-5-6v-3l-7-1-1-2h-2l-1-7-2-1v5l-3-4-1-5v-11z" fill="#EDA285"/>
<path transform="translate(1072,501)" d="m0 0 1 2 2 1-1 2 5-1v-2l4-2-1 6v6l-3 10-2 17-4 6-12 11-6 5-7 4-3-2v-23l1-8 3-3 2-7 7-12 5-5z" fill="#040204"/>
<path transform="translate(838,480)" d="m0 0 3 1v28l-1 15-2 5-1 1v17l4 2v2l-9-1-8-2-3-3-5-3 1-2-1-7v-30l2-10 3-5 3-4h6l4-1v-2z" fill="#411C1D"/>
<path transform="translate(1353,937)" d="m0 0 2 3 1 3 9 102 5 53 6 69 7 77v21l-2-4-3-14-1-11-1-7-1-4v-10l-2-9v-10l-1-11-1-4-1-17-1-2v-12l-1-9-1-2-1-19-1-14v-10l1-3h-2v-2h2v-2l-2-1-1-11-1-5-1-14v-9l-2-1v-16l-2-14-1-15h2l-3-9v-11l-2-16v-20l-2-1h2l-1-6z" fill="#60933C"/>
<path transform="translate(767,691)" d="m0 0h1l2 12 2 1 4 16 5 7v2h2l1 9-2 2h-5l-4-6-5 1-2 4-4 1h-5l-1-4 1-3-2-1-14 2 1-7h-7l-2-5 3-9h-8v-1l10-1 10-11 9-4 10-1z" fill="#F9C8A1"/>
<path transform="translate(942,496)" d="m0 0h11l1 2h18l-1 16-2 15-3 7-4 12-2 3-4-1-10-9-6-5-1-36 1-3z" fill="#411C1D"/>
<path transform="translate(905,768)" d="m0 0h4v9l-4 10-10 7-6 2h-25l-9-6-6-7-4-9v-5l27 2h19z" fill="#EDA386"/>
<path transform="translate(1e3 707)" d="m0 0h15l20 2 2 1v2l4 1 1 9-1 14-1 1h-22l-26-1-1-2z" fill="#0886C2"/>
<path transform="translate(751,903)" d="m0 0h2v24l-2 22-2 6-18 1h-14l-1-4 5-16 8-14 5-6 8-7z" fill="#FEFDFD"/>
<path transform="translate(1077,267)" d="m0 0h3l-1 9-9 20-8 14-12 17-10 14-10 13-3 4h-2l2-12 9-24 8-17 10-15 12-15h2l2-4z" fill="#FEFEFE"/>
<path transform="translate(822,485)" d="m0 0 2 1-4 4-2 6-1 10v27l1 8-1 2-5-1-7-3-2 6-10 19-5 7-2-2 3-15 3-21 2-6 1-7v-10h-3l-1-4 15-10 11-7h2v-2z" fill="#4D3331"/>
<path transform="translate(844,672)" d="m0 0h6l2 5 1 11 2 5 4 2 12 4h14l6-2 3-5 4-14 3-3h5l2 4v14h-2l-1 4-2 6h-2v2l-14 7h-13l-12-3-9-4-9-6-3-7-1-7v-8z" fill="#DD4F48"/>
<path transform="translate(1174,671)" d="m0 0 5 1 4 12-1 4-3 6-6 8-8 5-10 4-5 1h-12l-10-3-6-4-5-6-2-4-1-6v-12l2-1h8l3 13 2 6 7 4h14l6-2 10-5 4-7 1-12z" fill="#DF4F48"/>
<path transform="translate(765,337)" d="m0 0 3 3 6 15 2 10v11l-3 13-6 10-1 1h-6l-4-6-2-14 1-15 4-17 4-10z" fill="#FEFEFE"/>
<path transform="translate(1190,484)" d="m0 0h5l5 5 2 7 1 16v8l-2 9-1 2h-2l-2 6-3 3-4-1-3-3-4-6-2-2-1-9 2-6 1-5 2-4-3-11 4-5h3z" fill="#050204"/>
<path transform="translate(1108,586)" d="m0 0h8l5 3 5 12 2 12v6l-1 1h-11l-1-4-1-15-2-3-4 2-5 8-3 17-1 1h-5l-4-5-1-2v-9l3-10 8-10 4-3z" fill="#101518"/>
<path transform="translate(1181,589)" d="m0 0h14l8 4 4 5 4 12 1 11-2 6-5 1-5-3-1-3-2-16-2-4-5-1-4 2-1 5v11l-1 2-12-1v-14l8-16z" fill="#0F1618"/>
<path transform="translate(1070,342)" d="m0 0h7l5 5 1 2v8l-5 4-35 13-14 5h-2l2-4 11-12 7-7 10-8 9-5z" fill="#FEFEFE"/>
<path transform="translate(909,586)" d="m0 0 9 1 9 9 5 11v12l-3 7-9-2-1-3 1-6-3-10-5-7-2-1-2 9-2 13-6 2-4-1-2-4 1-11 4-12 7-6z" fill="#0E1518"/>
<path transform="translate(830,588)" d="m0 0h5l3 3 5 2 7 13 1 13-11 2-2-2v-10l-5-8-7 1-2 7-2 14-2 5h-6l-5-6 3-16 5-13 9-4z" fill="#0E1418"/>
<path transform="translate(1072,372)" d="m0 0h4l-2 4-9 10-5 5-9 8-16 9-11 4-1-1v-18l6-4 40-16z" fill="#FEFEFE"/>
<path transform="translate(1029,818)" d="m0 0h11l3 1v46l-1 1h-12l-4-4-1-12 2-24 1-7z" fill="#0787C3"/>
<path transform="translate(1474,397)" d="m0 0h3l-1 9-4 17-8 17-6 5-7-1-3-4v-13l5-10 9-10 9-8z" fill="#FEFEFE"/>
<path transform="translate(1275,1425)" d="m0 0h17l-2 9-3 6-3 3-8 1v3l11-1 4 2 1 2v7l-4 5-7 2-11-1-3-3v-7l4-2-1-2v-8l-1-2v-10l3-3z" fill="#134754"/>
<path transform="translate(868,316)" d="m0 0h5l5 8 2 15-2 7-18 6-9 4h-3l2-9 6-15 7-11z" fill="#FEFEFE"/>
<path transform="translate(777,896)" d="m0 0h12l13 2 15 7 11 8 6 7 7 11 3 6-1 4-1-3-3-1v-4l-4 1-3-3-3-1v-2l-4-2-7-6v-2l-4-2-5-6-7-3-7-2-9-3h-8l-2-1v2l-11 1v2l-3 1v-2l-8 1v-2l4-3 3-2z" fill="#61983D"/>
<path transform="translate(1367,323)" d="m0 0 3 1-3 10-17 44-3 6-4-1-1-7v-15l4-16 6-11 7-7z" fill="#FEFEFE"/>
<path transform="translate(1264,323)" d="m0 0h4l-1 5-11 30-10 23-4 4-2-3v-22l4-15 5-9 7-8z" fill="#FEFEFE"/>
<path transform="translate(1204,759)" d="m0 0 15 1 3 24-1 13-11-1-12-3-1-3 1-8 5-18z" fill="#0786C3"/>
<path transform="translate(1070,746)" d="m0 0 5 1 2 4 1 13 4 13 4 14 2 5h-24v-37l5-1h4l-1-9z" fill="#0887C3"/>
<path transform="translate(1143,1425)" d="m0 0 5 1v2l6-3h7l5 5 1 2v13l-3 5-3 2h-7l-5-2 2 13-1 1h-6l-1-1z" fill="#16505E"/>
<path transform="translate(1178,1425)" d="m0 0h5l1 2 6-2 7 1 4 4 1 3v11l-2 5-3 2h-12v12l-7 1z" fill="#154E5D"/>
<path transform="translate(628,1415)" d="m0 0h5l1 3v33l-16 1-5-2-3-6v-12l3-5 4-2h8l2 1v-10z" fill="#1B5765"/>
<path transform="translate(1111,495)" d="m0 0 5 2v5l3 1v3l5 1 3 2v12l-1 9-5 8h-2l-2 6-3 3h-3l-1-3-2-1v-5l3-7 2-4-5-1-1-4 2-11 1-8-1-5z" fill="#040204"/>
<path transform="translate(1058,511)" d="m0 0h3l-1 5-4 9 2 1v3l-1 3h2l1 6 1 9v4l5-2 6-5 2 1-13 12-6 5-7 4-3-2v-23l1-8 3-3 2-7z" fill="#2C1E25"/>
<path transform="translate(861,922)" d="m0 0 3 3 8 3 9 7 2 3 5 1 1 3-3 3-1 3-4 1-2 5h-15l-3-4h-1l-1-12-2-7h4l-1-6z" fill="#5B913B"/>
<path transform="translate(816,1417)" d="m0 0h14l6 2 3 5v7l-4 6-4 2-7 1-1 11-1 1h-6l-1-5v-17z" fill="#1B5661"/>
<path transform="translate(1321,1417)" d="m0 0h14l7 3 2 4-1 9-4 5-11 2-1 12h-6l-1-5v-26z" fill="#1A525A"/>
<path transform="translate(872,356)" d="m0 0h4l-1 5-7 14-9 10-3 3-6 1-5-3-2-3v-6l4-6 8-7 12-6z" fill="#FEFEFE"/>
<path transform="translate(706,1425)" d="m0 0h9l6 5 2 5-1 9-3 5-5 3h-8l-5-3-3-5v-11l3-5z" fill="#112B2F"/>
<path transform="translate(1284,694)" d="m0 0h2l9 16 10 20v6l-19-1-5-3-1-3 1-2 10-1-7-14-6-9-3-2 1-4z" fill="#3DA8CE"/>
<path transform="translate(1114,1425)" d="m0 0h9l6 4 2 3v12l-4 6-4 2h-8l-6-5-2-4v-11l5-6z" fill="#0F242A"/>
<path transform="translate(743,627)" d="m0 0 2 3 7 8 3 3-1 2-4 1-11-1-4 2h-3l-2 4 2 1h-2l2 2h2v2l3 1 1 3 2 3 1 8-4 1-3 1-7-9-2-5 1-12 4-11 6-5z" fill="#F4BC99"/>
<path transform="translate(1071,1415)" d="m0 0h6l1 1-1 11 5-2h8l4 4 1 2v21h-6l-1-5v-14l-2-2h-5l-2 3-1 18h-6l-1-1z" fill="#134D5F"/>
<path transform="translate(1138,801)" d="m0 0h3l1 8-8 3-9 3-5 2v2l-5 2 1 3 2 1-9 14-6 9-4 2-3 7-2 5-3 4-2 4 1-9 7-19 9-14 9-10 10-9z" fill="#07151D"/>
<path transform="translate(1359,1425)" d="m0 0h11l5 3 1 2v21l-9 1h-9l-4-4v-8l2-3 7-2h7l-1-4-7-1-1 1h-5l1-5z" fill="#154A59"/>
<path transform="translate(859,1424)" d="m0 0 7 1 5 5 1 3v7h-17l2 5 2 1h8l5-1-2 5-3 2h-10l-4-2-4-6v-11l3-5 4-3z" fill="#122E32"/>
<path transform="translate(940,1425)" d="m0 0h9l6 5 1 2v8h-17l2 5 2 1h8l5-1-1 5-3 2h-11l-4-2-4-6v-11l4-6z" fill="#0E2529"/>
<path transform="translate(1225,804)" d="m0 0 7 1 11 8 10 9v2h2l3 5h-3l-3-2h-3l2 3-1 3-6-5 1 6-4-3v-2h-2l-5-5-10-7-3-3 4 1 2-4 2-2z" fill="#07131A"/>
<path transform="translate(524,1417)" d="m0 0h19v6l-11 1-1 8h10l1 1v5l-10 1-1 12h-8v-30z" fill="#1B525B"/>
<path transform="translate(1182,563)" d="m0 0 15 2 14 7 1 5-5 5-10-3-15-4-5-2-2-5 2-4z" fill="#101418"/>
<path transform="translate(1268,524)" d="m0 0 2 4 3 1 5 13 3 8 3 13 1 14v20l-1 3h-2l-1-8-1-10-3-9-3-18-1-5-3-8v-2-8l-2-4z" fill="#060709"/>
<path transform="translate(842,563)" d="m0 0 4 2v9l-18 4-6 3-9 1-2-3v-7l9-4 11-4z" fill="#0F0B0B"/>
<path transform="translate(906,587)" d="m0 0h7l4 1v3h-2v2l-5 1-1 10-2 5-1 10-6 2-4-1-2-4 1-11 4-12z" fill="#0E1519"/>
<path transform="translate(1234,1425)" d="m0 0 5 1 4 1 3-2 9 1 3 4v22h-6l-1-20-5-1-4 2-1 18-1 1h-6z" fill="#1B5968"/>
<path transform="translate(1174,671)" d="m0 0 5 1 4 12-1 4-3 6-4 6-6 2-3-1v-2h-2v3l-4 1h-3l-4-3h2l1-3 10-5 4-7 1-12z" fill="#723937"/>
<path transform="translate(734,1425)" d="m0 0h5l1 1 1 18 5 2 4-1 1-17v-3h6l1 1 1 23-1 2h-9l-9 1-3-1-3-5z" fill="#175565"/>
<path transform="translate(574,1425)" d="m0 0h5l1 2 5-1 1-1 9 1 3 5 1 20-7 1-1-20-4-1-6 1v19l-6 1-1-1z" fill="#1C555D"/>
<path transform="translate(1045,1417)" d="m0 0h12l3 2v4h-15l2 5 10 7 3 4v6l-5 6h-14l-4-4 1-3 5 1h10l1-4-11-7-4-5v-6l4-5z" fill="#0C1E24"/>
<path transform="translate(1442,1425)" d="m0 0 5 1 3 1 4-2 9 1 3 5 1 20-7 1-1-21-10 1v19l-1 1h-6z" fill="#144B58"/>
<path transform="translate(1107,561)" d="m0 0h17l5 3 2 3-5 5-2 1-25 2-3-2-1-4 3-5z" fill="#0F191A"/>
<path transform="translate(661,1416)" d="m0 0h5l4 5 4 8h2l7-12h6l-2 6-6 12-3 16-5 1-1-1-1-12-9-19z" fill="#145265"/>
<path transform="translate(898,561)" d="m0 0h13l13 3 3 4-1 4-3 3-10-1-13-1h-6l-2-2 1-6z" fill="#0E0A0A"/>
<path transform="translate(1487,1424)" d="m0 0 8 2 5 6v8h-13l-2-1 1-3 8-1-2-4-2-1v-2l-5 3-1 2v9l1 3 2 1h8l5-1-1 5-5 2h-9l-4-2-4-7v-10l4-6z" fill="#0D2026"/>
<path transform="translate(1244,836)" d="m0 0 4 2 6 10 6 15 1 5-1 3-11-1-3-2-3-27z" fill="#0786C3"/>
<path transform="translate(916,1415)" d="m0 0h10l1 4-8 1-1 4 6 1v5l-6 2 1 19h-8l-1-19-1-1 1-7 3-7z" fill="#114453"/>
<path transform="translate(1138,780)" d="m0 0 5 1 16 9v4l-7 2-5 1h-7l-1-4h-2l-1 3-5 1-3-6v-3l6-4h2z" fill="#0D87BF"/>
<path transform="translate(1419,1420)" d="m0 0h4l2 4 5 2 1 5h-6l-1 5v9l7 1 1 3-1 2h-12l-2-4-1-16-3-1 1-3h2l2-5z" fill="#1F606E"/>
<path transform="translate(1e3 1420)" d="m0 0h3l8 8-1 3h-6v13l7 3v4h-12l-2-4-2-15 1-7z" fill="#175C71"/>
<path transform="translate(901,675)" d="m0 0h5l2 4v14h-2l-1 4-3 5-8-2 1-2-2-1 3-13 3-8z" fill="#683836"/>
<path transform="translate(814,602)" d="m0 0 7 1 2 3v13l-3 9h-6l-5-6 3-16z" fill="#12171A"/>
<path transform="translate(1271,1446)" d="m0 0 2 1v4h11l6 2 2-3v7l-4 5-7 2-11-1-3-3v-7l4-2z" fill="#183839"/>
<path transform="translate(974,1425)" d="m0 0h10l2 2-1 4h-9l-3 3-1 7 2 4 7 1 6-1-1 4-4 3h-8l-5-3-3-4v-13l4-5z" fill="#0E242A"/>
<path transform="translate(1140,495)" d="m0 0 3 2-1 1 4 2 6-2h5l1 4-1 5-6-1 1 2 4 1v2l7-1-1 3-5 1-2 3-2-2-2-1-4 4-4-2v-2h2l-2-11-4-2v-5z" fill="#050305"/>
<path transform="translate(883,1424)" d="m0 0 4 1 2 3h4l1-3h5l1 5-8 3-1 3-1 15-1 1h-5l-1-1z" fill="#1D4F54"/>
<path transform="translate(1389,1425)" d="m0 0 8 2 2-1h7l-1 4-7 4-1 2-1 15-1 1h-5l-1-1-1-25z" fill="#1E5258"/>
<path transform="translate(1201,470)" d="m0 0 7 1 12 5 15 8 6 3v2l-13-1-10-4-1-2-7-1v-2l-4-1-5-6z" fill="#09090A"/>
<path transform="translate(770,1425)" d="m0 0 5 1 4 2 4-3h4v5l-8 3-1 2-1 16h-7z" fill="#18596A"/>
<path transform="translate(1523,1425)" d="m0 0 6 1-1 4-2 2-5 1-1 2-1 16-6 1-1-1v-25l6 1v3l2 1 1-4z" fill="#0F495C"/>
<path transform="translate(1292,719)" d="m0 0 7 5h3l3 6v6l-19-1-5-3-1-3 1-2 11-2-1-5z" fill="#0F8AC2"/>
<path transform="translate(859,1424)" d="m0 0 7 1 5 5 1 9h-9l-6-1 2-2 7-1-2-4-4-1-3 1-4 10-3 1-1-1v-8l3-5 4-3z" fill="#0F252B"/>
<path transform="translate(945,1425)" d="m0 0 6 1 5 6v8h-17l-1 2v-7l3-5h2l1-4z" fill="#0E252A"/>
<path transform="translate(1280,624)" d="m0 0 3 4 5 3 5 6 4 12v9l-3-4-2-5h-2l-3-8-4-1-7-2 3-6z" fill="#F4BA98"/>
<path transform="translate(846,601)" d="m0 0 3 3 2 8v7l-11 2-2-2v-10l-2-5 7-1z" fill="#0C0809"/>
<path transform="translate(1035,667)" d="m0 0 1 2h2l1 5 4 2 1 4h2v2h2l1 6 2 8h-9l-2-2-5-23z" fill="#EDA386"/>
<path transform="translate(1214,1425)" d="m0 0h6l1 1v25l-1 1h-5l-2-3v-23z" fill="#276061"/>
<path transform="translate(1192,1426)" d="m0 0 7 1 3 6v11l-2 5-3 2h-11l-1-4 1-1 9-2v-14l-2-1z" fill="#0E2024"/>
<path transform="translate(906,587)" d="m0 0h7l4 1v3h-2v2l-5 1-1 10h-5l-2-2-5-1 1-6 6-7z" fill="#080607"/>
<path transform="translate(1159,1426)" d="m0 0 5 1 3 5v13l-3 5-3 2h-7l-4-2-1-3 10 1 2-4-1-10-4-5z" fill="#0F2326"/>
<path transform="translate(1147,635)" d="m0 0 4 1 4 9 2 4-4 1-16-3-1-5 3-3z" fill="#803D3A"/>
<path transform="translate(707,1430)" d="m0 0 7 1 3 5-1 8-5 3-4-1-3-3-1-8z" fill="#FAFCFD"/>
<path transform="translate(555,1425)" d="m0 0h6l1 1v25h-7z" fill="#15505A"/>
<path transform="translate(1116,1430)" d="m0 0 6 1 3 2v11l-4 3h-5l-3-4v-11z" fill="#F9FCFD"/>
<path transform="translate(1053,1434)" d="m0 0 5 2 2 3v6l-5 6h-14l-4-4 1-3 5 1h10l1-4-4-4h2z" fill="#10272A"/>
<path transform="translate(734,1425)" d="m0 0h5l1 1 1 18 2 4 3 2v2l-9-1-3-5z" fill="#144B59"/>
<path transform="translate(929,604)" d="m0 0h2l1 3v12l-3 7-9-2-1-3 2-8h5l2-7z" fill="#0E0B0B"/>
<path transform="translate(1457,1426)" d="m0 0h6l3 5 1 20-7 1-1-19-2-5z" fill="#164953"/>
<path transform="translate(588,1426)" d="m0 0h7l3 5 1 20-7 1-1-20-3-5z" fill="#154855"/>
<path transform="translate(618,1431)" d="m0 0 9 1 1 2v10l-7 3-4-2-1-2v-10z" fill="#FEFEFE"/>
<path transform="translate(1248,1426)" d="m0 0h7l3 4v22h-6l-1-20-3-4z" fill="#0D3C4B"/>
<path transform="translate(615,1426)" d="m0 0h5l-4 6 1 11 4 5 1 3h-8l-4-7v-12l3-5z" fill="#123F4C"/>
<path transform="translate(872,636)" d="m0 0h7l6 5 1 4-4 2-14 1-1-3z" fill="#513231"/>
<path transform="translate(1186,1431)" d="m0 0h8l2 2v11l-3 2h-6l-2-2v-12z" fill="#FEFEFE"/>
<path transform="translate(922,761)" d="m0 0 2 1-7 3-6 2-2 2-9 1-9 2h-19l-25-2v-1l25-1 10 1 27-3 7-3z" fill="#F3B895"/>
<path transform="translate(716,709)" d="m0 0h6l6 3 8 1-1 6-5 1h-5l-1-3-3 3-2-1-1 2v-2h-3l2-7z" fill="#598F3E"/>
<path transform="translate(1151,1431)" d="m0 0h8l2 3v9l-3 3-3 1-5-4v-10z" fill="#FEFDFE"/>
<path transform="translate(1284,694)" d="m0 0h2l6 10v3h-3l-1 4h-3l-3-5-7-5 1-4z" fill="#1788B5"/>
<path transform="translate(955,751)" d="m0 0 5 1 5 3v2l5 1 8 5 3 2v2l5-1v4l-5-1-8-4-5-1v-2h-3l-2-2-6-2-3-3z" fill="#61963F"/>
<path transform="translate(1359,1425)" d="m0 0h11l5 3 1 2v16l-2 2-3-11h2l-4-6-7-1-1 1h-5l1-5z" fill="#0D2B33"/>
<path transform="translate(769,698)" d="m0 0 5 2 2 11 1 6h2l5 7 4 8v2l4 1-6 2-2 3-2-1 1-1v-9h-2l-6-9-3-13v-3l-3-1z" fill="#F4BB97"/>
<path transform="translate(1138,801)" d="m0 0h3l1 8-8 3-9 3-5 2v2l-2-1 7-9z" fill="#071219"/>
<path transform="translate(1198,793)" d="m0 0 9 1 9 3-2 1v2l-4 1v2l-14-2-1-4 1-3z" fill="#071319"/>
<path transform="translate(1089,1431)" d="m0 0h6v21h-6l-1-5z" fill="#143235"/>
<path transform="translate(1097,611)" d="m0 0 3 1v13l-1 1h-5l-4-5v-8z" fill="#090507"/>
<path transform="translate(1115,601)" d="m0 0 1 3h3l4 9 4 2v5h-11l-1-4z" fill="#0D0A09"/>
<path transform="translate(1252,835)" d="m0 0 6 5 3 5 2 8-2 2-2-1-2 3-7-15h3z" fill="#07131A"/>
<path transform="translate(831,564)" d="m0 0 4 1h-3v2l7 1v2h2l1 4-15 1-3-5v-2l-2-1z" fill="#0E1518"/>
<path transform="translate(1493,1426)" d="m0 0 4 2 3 4v8h-13l-2-1 1-3 8-1-2-4-2-2z" fill="#132E2F"/>
<path transform="translate(1280,601)" d="m0 0 3 1v13l-3 17-2 1-1-16v-8l1-5h2z" fill="#0E0D0E"/>
<path transform="translate(1273,1442)" d="m0 0h2l1 5 11-1 4 2v6l-7-2h-11l-2-6z" fill="#10272A"/>
<path transform="translate(1050,531)" d="m0 0 2 2 2-1v5h-2v4h3v5l-5-1-1 4-3-1v-15z" fill="#06070A"/>
<path transform="translate(666,1425)" d="m0 0 4 2 3 3 3 13 3 2-2 7-5-1-1-12-5-11z" fill="#0C1F25"/>
<path transform="translate(834,1420)" d="m0 0 3 1 2 3v7l-4 6-1 1h-9l1-2 5-2 1-2v-6l-1-4z" fill="#0A1C22"/>
<path transform="translate(877,523)" d="m0 0h2l3 21-1 2h-5l-2-2 2-20z" fill="#321D24"/>
<path transform="translate(1075,1415)" d="m0 0 3 1-1 11 5-2h8l4 4-1 3-4-1-1 2-2-2-4-2 1-2-5 3h-2z" fill="#1B5A6A"/>
<path transform="translate(1200,617)" d="m0 0 6 1 4 1 1-2v9l-3 2-6-1-2-2z" fill="#0C0709"/>
<path transform="translate(1279,1451)" d="m0 0 8 1-1 5-4 2h-8l-2-2 1-4z" fill="#F9FAF6"/>
<path transform="translate(1418,1433)" d="m0 0h1v13l2-1 1-12h1l1 12 7 1 1 3-1 2h-12l-1-2z" fill="#102B32"/>
<path transform="translate(824,1423)" d="m0 0h6l3 3v6l-8 2-2-1v-9z" fill="#FCFDFB"/>
<path transform="translate(1330,1422)" d="m0 0 6 2 2 4-2 5-7 1-1-1v-9z" fill="#FEFDFE"/>
<path transform="translate(1178,1155)" d="m0 0 5 5v6l-2 1 1 22-3-3-1-11z" fill="#60943C"/>
<path transform="translate(1272,1426)" d="m0 0h8l-2 1-2 4v9l-3 1-3-3-1-9z" fill="#123A46"/>
<path transform="translate(1e3 1420)" d="m0 0h3l8 8-1 3-5-1-2-3v-2l-4 1-1 6h-3l1-7z" fill="#1B4A4D"/>
<path transform="translate(754,934)" d="m0 0 5 2 1 3-3 9-4 1-2 3v-10l2-2z" fill="#5F933E"/>
<path transform="translate(844,672)" d="m0 0h6l1 1v14l-4-5-3-2-1 1h-2l1-7z" fill="#5E3533"/>
<path transform="translate(738,668)" d="m0 0h3l1 2 3-1 5 3 5 1-2 3h-9l-7-3-2-1v-2z" fill="#EEA689"/>
<path transform="translate(1512,1426)" d="m0 0 5 1-2 1v15l1 4v2l3 2-6 1-1-1z" fill="#0C313D"/>
<path transform="translate(814,602)" d="m0 0 7 1 2 3v5l-6-1-3 3-2-1 1-9z" fill="#080607"/>
<path transform="translate(1123,470)" d="m0 0 4 1 1 4v9l-2 2-3-1-2-7 1-5z" fill="#040204"/>
<path transform="translate(1147,635)" d="m0 0 4 1 2 8-4 1-5-2-1-3-6 1 2-2z" fill="#E04F48"/>
<path transform="translate(812,617)" d="m0 0 5 1 3 5v5h-6l-5-6z" fill="#0C090A"/>
<path transform="translate(1182,563)" d="m0 0 6 1-3 6-8 3-2-5 2-4z" fill="#0D0C0A"/>
<path transform="translate(1102,473)" d="m0 0 4 1-2 4-12 6-4 3v-4l4-4z" fill="#151713"/>
<path transform="translate(974,1425)" d="m0 0h10l2 2-1 4h-9l-4 3-1-4 2-2-1-2z" fill="#154E5E"/>
<path transform="translate(852,1428)" d="m0 0h7v2l-3 3-3 8-3 1-1-1v-8z" fill="#0A222B"/>
<path transform="translate(899,610)" d="m0 0 7 4v5l-6 2-4-1-1-6 2 1v-4z" fill="#0A0908"/>
<path transform="translate(1197,1437)" d="m0 0h1l1 6h2l-1 6-3 2h-11l-1-4 3-1v2l8-3z" fill="#0A1A1F"/>
<path transform="translate(1487,1428)" d="m0 0h3v2l4 2v3l-8 2-1 2 2 1h-4v-7z" fill="#CAE7F2"/>
<path transform="translate(734,642)" d="m0 0 4 4v7l1 5-2 1-1-4-2-1v-2l-3 1-1-4 1-6 2 1z" fill="#EDA285"/>
<path transform="translate(1036,674)" d="m0 0 2 1 1 6 6 2v11l-4 1-2-7z" fill="#F3B899"/>
<path transform="translate(1277,1429)" d="m0 0 5 1 2 3v4l-4 2-5-1v-7z" fill="#FCFDFE"/>
<path transform="translate(661,1416)" d="m0 0h5l4 5 2 6-4 1-5-5-2-4z" fill="#18505C"/>
<path transform="translate(1182,608)" d="m0 0 2 1 1 10-1 2-9-1 4-1v-9z" fill="#0E120C"/>
<path transform="translate(954,542)" d="m0 0h7l1 1v5l-2 3-4-1-4-3 1-4z" fill="#351D23"/>
<path transform="translate(944,531)" d="m0 0 5 1 2 3-1 5 1 2-5-1-5-6z" fill="#2F1C23"/>
<path transform="translate(1269,1435)" d="m0 0 2 3v2h4l2-2 6-1v2l3 2-5 3h-6v-2l-3 2-1 5h-1v-8z" fill="#237088"/>
<path transform="translate(735,1430)" d="m0 0h1v15l5-1 2 4 3 2v2l-9-1-2-3z" fill="#11272A"/>
<path transform="translate(707,1426)" d="m0 0 5 2-3 2-5 5-1 2h-5l1-5 5-5z" fill="#07131A"/>
<path transform="translate(1365,1439)" d="m0 0h5v6l-7 2-3-1v-5z" fill="#fff"/>
<path transform="translate(943,1429)" d="m0 0h5l2 3v3l-3 1h-8l1-5z" fill="#E5F3F9"/>
<path transform="translate(999,1445)" d="m0 0 5 1 8 1v4h-12z" fill="#0D1F23"/>
<path transform="translate(1071,1415)" d="m0 0h4l1 13-1 3-3 1z" fill="#101F20"/>
<path transform="translate(1163,694)" d="m0 0 2 1-1 7-4 1h-3l-4-3h2l1-3z" fill="#7C3B38"/>
<path transform="translate(916,1415)" d="m0 0h10l1 4-11 2-1 2h-2l1-5z" fill="#13292A"/>
<path transform="translate(888,447)" d="m0 0h4v23l-2-2-1-7-1-12-2-1z" fill="#4C3532"/>
<path transform="translate(1494,1434)" d="m0 0 4 1v5h-11l-2-1 1-3z" fill="#154553"/>
<path transform="translate(792,740)" d="m0 0 4 2 11 8v2l-7-2-6-4-2-3z" fill="#5C923B"/>
<path transform="translate(1497,1445)" d="m0 0h3l-1 5-5 2h-9v-2l-2-2h5v-1z" fill="#195059"/>
<path transform="translate(860,1429)" d="m0 0 5 2 1 4-3 1h-7v-5z" fill="#F7FAFD"/>
<path transform="translate(1049,722)" d="m0 0 5 2 11 15h-3l-11-12z" fill="#D4B49A"/>
<path transform="translate(884,1437)" d="m0 0 3 4 2-3v13l-5-1z" fill="#07151C"/>
<path transform="translate(1043,1424)" d="m0 0h2l3 5 8 5-3 1-1 2h-2v-3h-4v-2h-2l-1-5z" fill="#19596B"/>
<path transform="translate(628,1415)" d="m0 0h5l1 3-1 3-2 1-1 7-2-1-1-12z" fill="#0D252B"/>
<path transform="translate(999,776)" d="m0 0 2 1-2 7-5 4-3-1v-2l3-1 1-3h-3v-3l5 2z" fill="#578D3D"/>
<path transform="translate(1035,622)" d="m0 0 1 4v7l1 4-1 5-2-1-1-1-1-8 1-8h2z" fill="#EDA285"/>
<path transform="translate(842,563)" d="m0 0 4 2-1 2-2-1v4h-4v-2l-7-1v-2z" fill="#060609"/>
<path transform="translate(917,1421)" d="m0 0 1 3 6 1v5l-6 2-2-5z" fill="#266C7F"/>
<path transform="translate(1523,1425)" d="m0 0 6 1-1 4-2 2h-6l1-5z" fill="#112C30"/>
<path transform="translate(894,1425)" d="m0 0h5l1 5-8 3h-2l2-4z" fill="#152C2B"/>
<path transform="translate(1390,1441)" d="m0 0 3 2 2-2v11h-5z" fill="#0A1C23"/>
<path transform="translate(843,566)" d="m0 0 3 1v7l-9 2h-4v-2l5-1 3-1v-2h2z" fill="#140F0F"/>
<path transform="translate(1111,495)" d="m0 0 5 2-1 7-5-1-1-5z" fill="#060305"/>
<path transform="translate(938,1435)" d="m0 0 9 1v2l9 1v1h-17l-1 2z" fill="#1B5A6B"/>
<path transform="translate(616,1444)" d="m0 0 4 2 2 5h-8l-2-3 1-3z" fill="#0D1E22"/>
<path transform="translate(783,1425)" d="m0 0h4v5l-8 3-2-1 4-6z" fill="#193533"/>
<path transform="translate(1058,511)" d="m0 0h3l-1 5-3 7-4-1 1-5z" fill="#332E2B"/>
<path transform="translate(713,781)" d="m0 0 5 1v2l7 2v2l3-1v3l3 1-3 1-15-9z" fill="#4F8549"/>
<path transform="translate(1197,1433)" d="m0 0h2l1 11-2-1-4 4-6 1v-2l7-2 1-10z" fill="#1A5865"/>
<path transform="translate(1108,592)" d="m0 0 3 1-2 6-2 3h-2l-2-5z" fill="#0B0608"/>
<path transform="translate(1279,547)" d="m0 0 2 3 3 13v10h-1l-1-9-2-1v-12h-2z" fill="#433B3A"/>
<path transform="translate(1284,1431)" d="m0 0h5v6l-2 3h-5z" fill="#081D26"/>
<path transform="translate(859,1424)" d="m0 0 7 1 2 3-6 1-3 1v-2h-6l3-3z" fill="#20575D"/>
<path transform="translate(985,1445)" d="m0 0h2l-1 4-4 3h-8l4-3-1-2z" fill="#1D5155"/>
<path transform="translate(1190,1425)" d="m0 0h5l-3 1v2l2 1v3l-8-1v-2l-2-1z" fill="#1E5D6A"/>
<path transform="translate(1e3 1421)" d="m0 0h3v5h-3l-1 6h-3l1-7z" fill="#0E1F1F"/>
<path transform="translate(685,1417)" d="m0 0h4l-2 6-3 6h-2v-2l-2-1 4-2v-6z" fill="#0F2122"/>
<path transform="translate(1190,600)" d="m0 0h3v2l-6 1v6h2l-1 4h-2l-2 2v-7l2-6z" fill="#F0B995"/>
<path transform="translate(1336,1423)" d="m0 0 4 1 1 2h-2v3l4-1-1 7h-3z" fill="#07161E"/>
<path transform="translate(759,833)" d="m0 0 2 1v3h2l-1 5h-2v2l-3-1v-6h2z" fill="#5D933E"/>
<path transform="translate(766,625)" d="m0 0 3 4v5l-4 2-2-3 2-7z" fill="#F4BB98"/>
<path transform="translate(1094,1431)" d="m0 0h1v18l-2-1-2-8 1-5h2z" fill="#10495B"/>
<path transform="translate(1045,1417)" d="m0 0h12l3 2-1 4-2-3-11 1 2-1v-2z" fill="#1B545C"/>
<path transform="translate(1228,733)" d="m0 0 4 1v2l-5 4h-2l-1 2-4-2 5-4h2z" fill="#E0BB9B"/>
<path transform="translate(855,1433)" d="m0 0 1 3 3 1 13 2v1h-17l-1 2z" fill="#2E7A88"/>
<path transform="translate(1273,1431)" d="m0 0h1v7h2l-1 3-4-1-2-7z" fill="#071117"/>
<path transform="translate(1454,1425)" d="m0 0h5l-2 1v2l2 1-1 2-8 1v-5z" fill="#1C5964"/>
<path transform="translate(986,973)" d="m0 0h1v26h-5l3-6z" fill="#5B913B"/>
<path transform="translate(1246,1425)" d="m0 0h6l-4 1 3 5-9 1 1-5z" fill="#215659"/>
<path transform="translate(729,639)" d="m0 0 1 2-2 15-2 2-1-1 1-12z" fill="#F3B796"/>
<path transform="translate(1282,628)" d="m0 0 5 2 5 5-1 2-7-3-3-4z" fill="#FAC9A2"/>
<path transform="translate(924,530)" d="m0 0h1l2 9 2 1-4 6h-1z" fill="#F3B896"/>
<path transform="translate(816,1445)" d="m0 0 4 2 2-1 1 5-1 1h-6z" fill="#112526"/>
<path transform="translate(736,1431)" d="m0 0h2l1 5v9h-3z" fill="#0B3849"/>
<path transform="translate(1293,641)" d="m0 0 2 1 2 7v9l-3-4z" fill="#F4B896"/>
<path transform="translate(1322,1442)" d="m0 0 4 3 1 7-5-1z" fill="#091519"/>
<path transform="translate(629,1430)" d="m0 0h1l1 14-3 3-1-3 1-12z" fill="#081F29"/>
<path transform="translate(737,1426)" d="m0 0h3v18h-1l-2-13z" fill="#184758"/>
<path transform="translate(885,700)" d="m0 0h5l-2 1v2l-5 1h-6l-2-3z" fill="#4D3231"/>
<path transform="translate(1274,533)" d="m0 0h1l3 9 1 4-4-2-3-5v-5z" fill="#483E38"/>
<path transform="translate(1419,1420)" d="m0 0h4l1 4-4 2-1 5-2-1 1-4z" fill="#081E28"/>
<path transform="translate(555,1416)" d="m0 0h7l-1 5h-5z" fill="#0F2D32"/>
<path transform="translate(1285,714)" d="m0 0 3 3 3 6v3l-2 1h-8v-1l7-1z" fill="#fff"/>
<path transform="translate(1282,1437)" d="m0 0 1 2 3 2-5 3-4-1 2-4z" fill="#1F606E"/>
<path transform="translate(1283,1427)" d="m0 0h4v3l4-1-1 5-1-3-6 2-2-4h2z" fill="#388794"/>
<path transform="translate(894,692)" d="m0 0 1 3v3l-1 3-6 1-3-3 6-2z" fill="#E2554C"/>
<path transform="translate(1090,1442)" d="m0 0 3 1 2 8h-5z" fill="#071016"/>
<path transform="translate(683,1417)" d="m0 0 2 1-1 6-7 5 2-5z" fill="#21595D"/>
<path transform="translate(1215,1415)" d="m0 0 5 1-1 5h-4l-1-5z" fill="#243C2E"/>
<path transform="translate(760,637)" d="m0 0h1v9l-5-3-1-5h4z" fill="#4D2323"/>
<path transform="translate(1256,622)" d="m0 0 4 5 2 6h-3l-3-3-1-6z" fill="#F0A688"/>
<path transform="translate(1139,464)" d="m0 0h6l-2 5-7-2-6-1v-1z" fill="#56543D"/>
<path transform="translate(1371,1437)" d="m0 0 5 1v8l-2 2z" fill="#071016"/>
<path transform="translate(1425,1426)" d="m0 0h5l1 5-7-1z" fill="#134A57"/>
<path transform="translate(872,636)" d="m0 0h7v1l-5 1-1 6-5 1 2-5z" fill="#E25049"/>
<path transform="translate(736,629)" d="m0 0 1 4-6 5-2-2 5-6z" fill="#F9C7A1"/>
<path transform="translate(1046,551)" d="m0 0 5 2-2 5-3 2z" fill="#040204"/>
<path transform="translate(651,247)" d="m0 0h13l-1 4-2-1-10-1z" fill="#1F3B32"/>
<path transform="translate(1513,1426)" d="m0 0 4 1-2 1v15l-2 1z" fill="#071118"/>
<path transform="translate(1132,520)" d="m0 0 3 1v8l-4-3-2 1 1-4z" fill="#F2B191"/>
<path transform="translate(1493,1426)" d="m0 0 4 2v3l-4 1-3-3z" fill="#0E2E37"/>
<path transform="translate(1123,811)" d="m0 0m-2 1 2 1-4 5-2 2-5 4-2-1z" fill="#071B24"/>
<path transform="translate(907,561)" d="m0 0 8 1-3 1v2l4 2-7-1v-2l-2-1z" fill="#17161A"/>
<path transform="translate(786,510)" d="m0 0 5 1-3 3-5 2v-3l-2-1z" fill="#4F3C36"/>
<path transform="translate(775,1441)" d="m0 0h1l1 10h-6v-2l4-1-1-4z" fill="#081A23"/>
<path transform="translate(1199,1433)" d="m0 0h3v11l-3-3z" fill="#0C272F"/>
<path transform="translate(1457,1426)" d="m0 0h5l-1 8-4-4z" fill="#071820"/>
<path transform="translate(706,1425)" d="m0 0h9l-4 3-4-1-5 3-3 2 2-4z" fill="#225655"/>
<path transform="translate(972,1427)" d="m0 0 2 1-2 4-1 4-3-2-1 2 1-5z" fill="#07141B"/>
<path transform="translate(879,637)" d="m0 0 6 4-2 2-5 1-2-1v-2l3-2z" fill="#E25049"/>
<path transform="translate(1268,524)" d="m0 0 2 4 3 1 1 6-3-1-3-6z" fill="#171210"/>
<path transform="translate(1204,470)" d="m0 0 9 3 2 2-3 1-9-4z" fill="#433C38"/>
</svg>
